<svg width="1012" height="325" viewBox="0 0 1012 325" fill="none" xmlns="http://www.w3.org/2000/svg">
<path d="M321.48 234.95L314.259 258.893C313.446 261.59 311.709 263.915 309.354 265.46L302.416 270.013C299.036 272.232 297 276.003 297 280.046V293.5C297 300.127 302.341 305.5 308.969 305.5H450C453.713 305.5 453.688 292.75 453.099 282.835C452.919 279.791 457.25 277.361 460.222 278.041C462.059 278.46 462.866 280.039 462.802 281.922C462.457 292.058 464.646 298.307 466.452 301.198C467.06 302.171 468.002 302.867 469.05 303.332C477.679 307.162 488.788 305.482 493.5 304.068C498.974 302.136 500.495 294.889 500.619 289.528C500.662 287.673 502.11 286.068 503.966 286.068C505.658 286.068 507.031 287.414 507.201 289.097C507.867 295.705 509.84 299.548 511.038 301.336C511.618 302.201 512.452 302.845 513.394 303.287C524.79 308.638 540.099 303.528 542.5 302.568C543.943 301.991 544.518 293.4 544.977 285.655C545.255 280.967 548.891 277.229 553.564 276.761C554.842 276.634 556.102 276.278 557.172 275.569C557.253 275.515 557.334 275.461 557.413 275.406C564.783 270.359 574.397 257.061 581.99 252.356C585.323 250.29 587.631 247.941 588.86 246.141C589.33 245.451 589.617 244.67 589.776 243.851C594.277 220.586 560.017 179.068 561 179.068C562 179.068 570.5 175.568 574.5 171.068C578.5 166.568 578.5 151.068 592 143.068C605.5 135.068 619.5 99.5678 619.5 85.0678C619.5 70.5678 613.5 55.0678 598 55.0678C589.027 55.0678 575.673 57.1623 565.63 59.0779C560.012 60.1495 554.321 57.3092 551.987 52.0872L548.674 44.6725C546.743 40.3506 542.452 37.5678 537.718 37.5678H471.595C466.456 37.5678 461.888 40.8397 460.233 45.7049L456.335 57.1695C455.341 60.0944 452.084 61.5731 449.228 60.3968C447.266 59.589 445.966 57.6991 445.914 55.5782L445.075 21.5956C445.026 19.6082 444.089 17.6928 442.163 18.1842C441.362 18.3887 440.667 18.734 440.5 19.0678C440.185 19.6983 433.221 34.3497 427.103 46.322C424.49 51.4349 418.382 53.6718 412.708 54.5489C408.499 55.1994 403.74 57.0293 399.5 61.0678C390.901 67.2098 390.797 80.5054 391.774 89.6956C392.138 93.1247 391.238 96.576 389.081 99.2665C375.114 116.687 331.56 174.273 348.001 200.217C350.222 203.723 350.568 208.659 347.458 211.408C343.938 214.519 338.162 212.976 335.118 209.398C332.472 206.288 329.227 203.813 325.966 202.004C319.641 198.497 314.767 204.651 316.764 211.601L321.524 228.172C322.161 230.389 322.146 232.742 321.48 234.95Z" fill="white" stroke="white" stroke-width="16"/>
<g clip-path="url(#clip0_287_1030)">
<mask id="mask0_287_1030" style="mask-type:alpha" maskUnits="userSpaceOnUse" x="508" y="219" width="39" height="86">
<path d="M541.352 301.473C551.17 297.488 546.397 234.057 533.367 219.912L509.571 234.835C509.571 234.835 505.491 291.842 511.559 299.003C517.626 306.163 531.534 305.457 541.352 301.473Z" fill="#D3C8FF"/>
</mask>
<g mask="url(#mask0_287_1030)">
<path d="M541.352 301.473C551.17 297.488 546.397 234.057 533.367 219.912L510.932 245.249C510.932 245.249 505.491 291.842 511.559 299.003C517.626 306.163 531.534 305.457 541.352 301.473Z" fill="#B9E1FF"/>
<path fill-rule="evenodd" clip-rule="evenodd" d="M533.367 219.912C546.397 234.057 551.17 297.488 541.352 301.473C538.058 302.81 534.304 303.777 530.54 304.203C531.959 303.8 533.334 303.329 534.637 302.8C543.802 299.081 540.253 243.56 529.141 224.685L533.367 219.912Z" fill="#81B0E0"/>
<ellipse cx="3.65002" cy="5.46857" rx="3.65002" ry="5.46857" transform="matrix(-0.991191 -0.132438 -0.13334 0.99107 534.154 296.961)" fill="white"/>
<ellipse cx="3.65002" cy="5.46857" rx="3.65002" ry="5.46857" transform="matrix(-0.991191 -0.132438 -0.13334 0.99107 527.978 296.86)" fill="white"/>
<ellipse cx="3.65002" cy="5.46857" rx="3.65002" ry="5.46857" transform="matrix(-0.991191 -0.132438 -0.13334 0.99107 521.463 295.845)" fill="white"/>
</g>
<path fill-rule="evenodd" clip-rule="evenodd" d="M532.255 220.413C531.791 220.839 531.761 221.56 532.188 222.023C535.243 225.339 537.929 231.717 540.05 239.695C542.156 247.617 543.658 256.93 544.451 265.942C545.245 274.958 545.324 283.623 544.605 290.254C544.244 293.575 543.689 296.332 542.951 298.353C542.187 300.442 541.333 301.452 540.583 301.756C535.809 303.694 530.04 304.831 524.756 304.618C519.447 304.404 514.83 302.84 512.09 299.606C511.519 298.932 510.987 297.65 510.564 295.73C510.149 293.85 509.869 291.507 509.7 288.849C509.36 283.536 509.469 277.089 509.77 270.833C510.069 264.584 510.558 258.554 510.973 254.084C511.18 251.85 511.368 250.007 511.504 248.723C511.573 248.082 511.628 247.58 511.666 247.239C511.685 247.068 511.7 246.938 511.71 246.85L511.725 246.72C511.725 246.719 511.725 246.719 510.592 246.588C509.459 246.457 509.459 246.457 509.459 246.457L509.459 246.459L509.455 246.492L509.443 246.593C509.433 246.682 509.418 246.815 509.399 246.987C509.36 247.332 509.304 247.838 509.236 248.484C509.098 249.777 508.909 251.63 508.701 253.876C508.285 258.366 507.793 264.432 507.491 270.726C507.189 277.013 507.076 283.558 507.423 288.995C507.596 291.712 507.886 294.183 508.336 296.222C508.776 298.22 509.402 299.961 510.348 301.078C513.675 305.004 519.046 306.668 524.662 306.894C530.304 307.122 536.397 305.914 541.441 303.867C543.146 303.175 544.29 301.331 545.094 299.133C545.922 296.867 546.503 293.905 546.873 290.498C547.613 283.672 547.525 274.849 546.724 265.741C545.922 256.629 544.402 247.183 542.255 239.109C540.123 231.09 537.327 224.235 533.867 220.48C533.441 220.017 532.719 219.987 532.255 220.413ZM510.724 245.456C510.098 245.384 509.532 245.832 509.459 246.457L510.592 246.588L511.725 246.72C511.798 246.095 511.35 245.529 510.724 245.456Z" fill="black"/>
<mask id="mask1_287_1030" style="mask-type:alpha" maskUnits="userSpaceOnUse" x="463" y="219" width="40" height="86">
<path d="M469.042 301.473C459.224 297.488 463.996 234.057 477.026 219.912L500.823 234.835C500.823 234.835 504.902 291.842 498.835 299.003C492.767 306.163 478.86 305.457 469.042 301.473Z" fill="#D3C8FF"/>
</mask>
<g mask="url(#mask1_287_1030)">
<path d="M469.042 301.473C459.224 297.488 463.996 234.057 477.026 219.912L499.462 245.249C499.462 245.249 504.902 291.842 498.835 299.003C492.767 306.163 478.86 305.457 469.042 301.473Z" fill="#B9E1FF"/>
<path fill-rule="evenodd" clip-rule="evenodd" d="M477.026 219.912C463.996 234.057 459.224 297.488 469.042 301.473C472.336 302.81 476.09 303.777 479.854 304.203C478.435 303.8 477.06 303.329 475.757 302.8C466.592 299.081 470.141 243.56 481.252 224.685L477.026 219.912Z" fill="#81B0E0"/>
<ellipse cx="3.65002" cy="5.46857" rx="3.65002" ry="5.46857" transform="matrix(0.991191 -0.132438 0.13334 0.99107 476.24 296.961)" fill="white"/>
<ellipse cx="3.65002" cy="5.46857" rx="3.65002" ry="5.46857" transform="matrix(0.991191 -0.132438 0.13334 0.99107 482.416 296.86)" fill="white"/>
<ellipse cx="3.65002" cy="5.46857" rx="3.65002" ry="5.46857" transform="matrix(0.991191 -0.132438 0.13334 0.99107 488.931 295.845)" fill="white"/>
</g>
<path fill-rule="evenodd" clip-rule="evenodd" d="M478.139 220.413C478.602 220.839 478.633 221.56 478.206 222.023C475.151 225.339 472.465 231.717 470.344 239.695C468.238 247.617 466.735 256.93 465.942 265.942C465.149 274.958 465.07 283.623 465.789 290.254C466.149 293.575 466.704 296.332 467.443 298.353C468.207 300.442 469.061 301.452 469.811 301.756C474.584 303.694 480.354 304.831 485.638 304.618C490.947 304.404 495.563 302.84 498.304 299.606C498.875 298.932 499.407 297.65 499.83 295.73C500.244 293.85 500.524 291.507 500.694 288.849C501.033 283.536 500.924 277.089 500.624 270.833C500.324 264.584 499.836 258.554 499.421 254.084C499.214 251.85 499.026 250.007 498.889 248.723C498.821 248.082 498.766 247.58 498.728 247.239C498.709 247.068 498.694 246.938 498.684 246.85L498.669 246.72C498.669 246.719 498.669 246.719 499.802 246.588C500.935 246.457 500.935 246.457 500.935 246.457L500.935 246.459L500.939 246.492L500.951 246.593C500.961 246.682 500.976 246.815 500.995 246.987C501.034 247.332 501.089 247.838 501.158 248.484C501.296 249.777 501.485 251.63 501.693 253.876C502.109 258.366 502.601 264.432 502.903 270.726C503.205 277.013 503.318 283.558 502.971 288.995C502.798 291.712 502.507 294.183 502.058 296.222C501.617 298.22 500.992 299.961 500.046 301.078C496.719 305.004 491.348 306.668 485.731 306.894C480.09 307.122 473.997 305.914 468.953 303.867C467.248 303.175 466.104 301.331 465.3 299.133C464.472 296.867 463.89 293.905 463.521 290.498C462.781 283.672 462.868 274.849 463.67 265.741C464.472 256.629 465.992 247.183 468.139 239.109C470.27 231.09 473.067 224.235 476.527 220.48C476.953 220.017 477.675 219.987 478.139 220.413ZM499.67 245.456C500.295 245.384 500.862 245.832 500.935 246.457L499.802 246.588L498.669 246.72C498.596 246.095 499.044 245.529 499.67 245.456Z" fill="black"/>
<mask id="mask2_287_1030" style="mask-type:alpha" maskUnits="userSpaceOnUse" x="405" y="174" width="73" height="68">
<path d="M405.605 219.569C402.48 209.445 454.621 173.009 473.818 174.151L477.317 202.021C477.317 202.021 435.752 241.247 426.368 241.079C416.984 240.91 408.731 229.693 405.605 219.569Z" fill="#D3C8FF"/>
</mask>
<g mask="url(#mask2_287_1030)">
<path d="M405.605 219.569C402.48 209.445 454.621 173.009 473.818 174.151L468.392 207.555C468.392 207.555 435.752 241.247 426.368 241.079C416.984 240.91 408.731 229.693 405.605 219.569Z" fill="#B9E1FF"/>
<path fill-rule="evenodd" clip-rule="evenodd" d="M473.818 174.151C454.621 173.009 402.48 209.445 405.605 219.569C406.654 222.966 408.28 226.486 410.332 229.67C409.746 228.316 409.241 226.953 408.826 225.609C405.908 216.159 451.149 183.78 472.796 180.443L473.818 174.151Z" fill="#81B0E0"/>
<ellipse cx="3.65002" cy="5.46857" rx="3.65002" ry="5.46857" transform="matrix(0.729673 0.683797 -0.683132 0.730295 413.653 222.289)" fill="white"/>
<ellipse cx="3.65002" cy="5.46857" rx="3.65002" ry="5.46857" transform="matrix(0.729672 0.683797 -0.683132 0.730295 418.414 226.375)" fill="white"/>
<ellipse cx="3.65002" cy="5.46857" rx="3.65002" ry="5.46857" transform="matrix(0.729673 0.683797 -0.683132 0.730295 422.547 231.411)" fill="white"/>
</g>
<path fill-rule="evenodd" clip-rule="evenodd" d="M474.956 174.218C474.919 174.847 474.38 175.327 473.752 175.289C469.25 175.022 462.612 176.977 455.092 180.381C447.625 183.762 439.462 188.491 431.982 193.579C424.497 198.669 417.737 204.09 413.057 208.842C410.713 211.222 408.929 213.397 407.832 215.247C406.697 217.16 406.455 218.461 406.694 219.234C408.214 224.156 410.983 229.344 414.491 233.301C418.016 237.277 422.148 239.863 426.387 239.939C427.27 239.954 428.598 239.556 430.353 238.669C432.071 237.8 434.063 236.534 436.229 234.984C440.558 231.885 445.482 227.722 450.136 223.532C454.786 219.346 459.146 215.152 462.346 212.003C463.945 210.429 465.253 209.117 466.161 208.2C466.614 207.741 466.968 207.38 467.208 207.135C467.328 207.012 467.42 206.918 467.481 206.855L467.573 206.761C467.573 206.761 467.573 206.761 468.392 207.555C469.21 208.349 469.21 208.35 469.21 208.35L469.209 208.351L469.186 208.375L469.115 208.448C469.052 208.512 468.959 208.608 468.838 208.732C468.595 208.98 468.238 209.343 467.781 209.805C466.867 210.729 465.552 212.048 463.945 213.63C460.731 216.794 456.344 221.012 451.661 225.228C446.983 229.44 441.987 233.668 437.556 236.84C435.343 238.424 433.245 239.763 431.382 240.705C429.556 241.628 427.812 242.245 426.349 242.219C421.203 242.127 416.516 239.02 412.788 234.814C409.042 230.589 406.123 225.106 404.517 219.905C403.974 218.147 404.678 216.094 405.871 214.081C407.102 212.006 409.028 209.682 411.433 207.24C416.251 202.348 423.139 196.834 430.699 191.692C438.263 186.548 446.54 181.749 454.151 178.303C461.709 174.881 468.787 172.709 473.884 173.012C474.513 173.05 474.992 173.59 474.956 174.218ZM469.184 206.737C469.637 207.176 469.648 207.898 469.21 208.349L468.392 207.555L467.573 206.761C468.011 206.309 468.732 206.298 469.184 206.737Z" fill="black"/>
<mask id="mask3_287_1030" style="mask-type:alpha" maskUnits="userSpaceOnUse" x="536" y="173" width="55" height="85">
<path d="M589.091 247.63C597.019 240.599 571.37 182.389 554.369 173.399L536.91 195.402C536.91 195.402 552.071 250.507 560.179 255.235C568.287 259.963 581.164 254.66 589.091 247.63Z" fill="#D3C8FF"/>
</mask>
<g mask="url(#mask3_287_1030)">
<path d="M589.091 247.63C597.019 240.599 571.37 182.389 554.369 173.399L541.665 204.766C541.665 204.766 552.071 250.507 560.179 255.235C568.287 259.963 581.164 254.66 589.091 247.63Z" fill="#B9E1FF"/>
<path fill-rule="evenodd" clip-rule="evenodd" d="M554.369 173.399C571.37 182.389 597.019 240.599 589.091 247.63C586.431 249.988 583.215 252.153 579.808 253.809C581.012 252.956 582.151 252.053 583.203 251.12C590.603 244.557 568.745 193.398 551.976 179.307L554.369 173.399Z" fill="#81B0E0"/>
<ellipse cx="3.65002" cy="5.46857" rx="3.65002" ry="5.46857" transform="matrix(-0.97863 0.205629 0.204738 0.978817 580.801 245.776)" fill="white"/>
<ellipse cx="3.65002" cy="5.46857" rx="3.65002" ry="5.46857" transform="matrix(-0.97863 0.205629 0.204738 0.978817 574.611 246.797)" fill="white"/>
<ellipse cx="3.65002" cy="5.46857" rx="3.65002" ry="5.46857" transform="matrix(-0.97863 0.205629 0.204738 0.978817 568.464 248.955)" fill="white"/>
</g>
<path fill-rule="evenodd" clip-rule="evenodd" d="M553.362 172.866C553.067 173.422 553.278 174.112 553.835 174.406C557.821 176.514 562.48 181.632 567.139 188.445C571.766 195.212 576.288 203.491 580.04 211.723C583.794 219.959 586.758 228.102 588.291 234.593C589.059 237.843 589.455 240.628 589.432 242.78C589.409 245.004 588.94 246.241 588.335 246.778C584.48 250.196 579.42 253.192 574.367 254.753C569.291 256.321 564.417 256.386 560.755 254.25C559.992 253.805 559.064 252.775 558.024 251.106C557.007 249.471 555.961 247.355 554.915 244.906C552.824 240.01 550.777 233.896 548.974 227.898C547.173 221.907 545.623 216.059 544.524 211.707C543.974 209.531 543.537 207.731 543.238 206.475C543.088 205.847 542.973 205.356 542.895 205.021C542.856 204.854 542.827 204.727 542.807 204.641L542.777 204.512C542.777 204.512 542.777 204.512 541.665 204.766C540.553 205.02 540.553 205.02 540.554 205.021L540.554 205.022L540.561 205.054L540.584 205.154C540.604 205.242 540.634 205.371 540.673 205.54C540.752 205.878 540.868 206.374 541.019 207.006C541.32 208.27 541.76 210.081 542.312 212.267C543.417 216.639 544.976 222.522 546.79 228.557C548.602 234.585 550.677 240.793 552.817 245.803C553.887 248.307 554.984 250.54 556.087 252.312C557.169 254.049 558.34 255.482 559.604 256.219C564.049 258.812 569.668 258.589 575.038 256.93C580.433 255.264 585.774 252.093 589.847 248.481C591.224 247.261 591.688 245.141 591.713 242.801C591.738 240.388 591.298 237.402 590.511 234.066C588.933 227.384 585.908 219.095 582.116 210.776C578.322 202.452 573.739 194.054 569.023 187.158C564.34 180.309 559.417 174.778 554.904 172.391C554.347 172.097 553.657 172.31 553.362 172.866ZM541.413 203.655C540.798 203.795 540.414 204.406 540.553 205.02L541.665 204.766L542.777 204.512C542.638 203.899 542.027 203.515 541.413 203.655Z" fill="black"/>
<path d="M506.964 286C419.699 286 460.62 180 480 144H534.841C553.668 180 594.229 286 506.964 286Z" fill="#B9E1FF" stroke="black" stroke-width="2.5"/>
<ellipse cx="505.5" cy="214" rx="28.5" ry="37" fill="white"/>
<path d="M564.748 221.544L564.747 221.555V221.567L564.747 227.433C564.747 227.434 564.747 227.435 564.747 227.436C564.743 228.986 564.375 230.514 563.674 231.896C562.972 233.279 561.956 234.478 560.708 235.397L559.335 236.407L560.71 237.413C561.961 238.328 562.979 239.526 563.68 240.908C564.382 242.291 564.747 243.82 564.747 245.372C564.747 246.923 564.382 248.452 563.68 249.835C562.979 251.218 561.961 252.415 560.71 253.33L559.335 254.336L560.708 255.346C561.956 256.265 562.972 257.464 563.674 258.847C564.375 260.229 564.743 261.757 564.747 263.307C564.743 267.136 563.221 270.807 560.516 273.515C557.81 276.223 554.142 277.746 550.317 277.75H519.44C516.95 277.749 514.502 277.102 512.335 275.874C510.167 274.646 508.354 272.877 507.072 270.74L506 268.954L504.928 270.74C503.646 272.877 501.833 274.646 499.665 275.874C497.498 277.102 495.05 277.749 492.56 277.75H462.683C458.858 277.746 455.19 276.223 452.484 273.515C449.779 270.808 448.257 267.137 448.252 263.308C448.257 261.757 448.625 260.229 449.326 258.847C450.028 257.464 451.044 256.265 452.292 255.346L453.665 254.336L452.29 253.33C451.039 252.415 450.021 251.218 449.32 249.835C448.618 248.452 448.252 246.923 448.252 245.372C448.252 243.821 448.618 242.291 449.32 240.908C450.021 239.526 451.039 238.328 452.29 237.413L453.665 236.407L452.292 235.397C451.044 234.478 450.028 233.279 449.326 231.896C448.625 230.514 448.257 228.985 448.252 227.435V221.582V221.571L448.252 221.56C448.207 219.062 448.833 216.598 450.064 214.425C450.284 214.038 450.701 213.59 451.332 213.098C451.952 212.614 452.71 212.139 453.534 211.676C454.356 211.214 455.214 210.779 456.032 210.367L456.155 210.305C456.912 209.924 457.648 209.553 458.24 209.213C460.192 208.138 461.82 206.559 462.955 204.64C464.091 202.718 464.691 200.525 464.692 198.292V198.292V153.18C464.692 153.18 464.692 153.18 464.692 153.18C464.692 152.958 464.766 152.743 464.902 152.569C465.038 152.395 465.228 152.271 465.441 152.218C465.442 152.218 465.442 152.218 465.442 152.218L471.542 150.692L471.546 150.691C473.931 150.086 476.432 150.104 478.808 150.744C481.095 151.36 483.192 152.533 484.915 154.155L504.826 208.558L506 211.765L507.174 208.558L527.094 154.155C528.815 152.533 530.911 151.362 533.197 150.745C535.571 150.105 538.07 150.086 540.454 150.691L540.458 150.692L546.558 152.218C546.558 152.218 546.558 152.218 546.558 152.218C546.772 152.272 546.962 152.395 547.098 152.57C547.234 152.744 547.308 152.959 547.308 153.18L547.308 153.222L547.311 153.263L550.308 198.336C550.32 199.632 550.813 200.831 551.354 201.844C551.69 202.473 552.117 203.151 552.495 203.751C552.702 204.08 552.894 204.385 553.049 204.646C554.186 206.565 555.816 208.145 557.771 209.218C559.928 210.459 561.713 212.255 562.94 214.421C564.169 216.59 564.794 219.05 564.748 221.544Z" fill="#977FF8" stroke="black" stroke-width="2.5"/>
<path d="M470 230.5V260.5" stroke="black" stroke-width="2.5" stroke-linecap="round"/>
<path d="M541 230.5V260.5" stroke="black" stroke-width="2.5" stroke-linecap="round"/>
<path d="M506 210V270.5" stroke="black" stroke-width="2.5"/>
<path d="M454 254H560" stroke="black" stroke-width="2.5"/>
<path d="M454 236.5H559.5" stroke="black" stroke-width="2.5"/>
<path d="M422.19 144.407C402.436 132.382 384.917 88.1354 395.979 66.5529C406.635 45.763 445.994 58.0611 466.736 66.5529C487.176 74.9216 480.887 82.1064 478.266 94.2741C475.646 106.442 468.795 152.568 462.395 168.654C454.394 188.761 435.405 173.642 432.56 160.966C429.654 148.017 427.688 147.754 422.19 144.407Z" fill="#B9E1FF"/>
<path fill-rule="evenodd" clip-rule="evenodd" d="M427.736 54.1429C441.7 55.7024 456.871 60.9596 467.283 65.2223C477.584 69.4395 481.798 73.6031 482.575 78.7758C482.947 81.2549 482.49 83.7886 481.842 86.3397C481.588 87.3414 481.31 88.3271 481.028 89.3289C480.562 90.9854 480.083 92.6861 479.676 94.5764C478.98 97.8085 477.988 103.424 476.782 110.254C475.723 116.251 474.499 123.183 473.164 130.261C470.331 145.287 466.996 160.987 463.734 169.184C461.644 174.438 458.734 177.639 455.307 179.048C451.879 180.456 448.233 179.947 444.933 178.406C441.64 176.868 438.582 174.259 436.17 171.239C433.758 168.22 431.922 164.704 431.154 161.28C429.701 154.808 428.532 151.773 427.184 149.935C426.058 148.399 424.788 147.64 422.665 146.372C422.285 146.145 421.878 145.902 421.439 145.635C411.155 139.375 401.686 124.946 396.171 109.548C393.401 101.813 391.595 93.7445 391.191 86.2087C390.787 78.6865 391.776 71.596 394.696 65.898C400.481 54.6124 413.915 52.5994 427.736 54.1429ZM427.415 57.0018C413.707 55.4708 402.134 57.7037 397.262 67.208C394.652 72.3012 393.682 78.835 394.069 86.0549C394.456 93.2611 396.19 101.053 398.886 108.58C404.304 123.707 413.471 137.414 422.94 143.179C423.325 143.413 423.7 143.636 424.067 143.853C426.189 145.112 428.013 146.194 429.51 148.236C431.247 150.604 432.513 154.174 433.967 160.651C434.621 163.566 436.225 166.693 438.424 169.446C440.623 172.197 443.346 174.488 446.155 175.801C448.959 177.11 451.738 177.403 454.209 176.388C456.682 175.372 459.145 172.923 461.055 168.123C464.194 160.234 467.484 144.829 470.331 129.729C471.646 122.759 472.865 115.858 473.925 109.855C475.145 102.95 476.155 97.2342 476.857 93.9719C477.277 92.022 477.809 90.127 478.296 88.3938C478.57 87.4156 478.83 86.4889 479.048 85.633C479.677 83.1533 480.007 81.0863 479.724 79.2021C479.19 75.6483 476.329 72.0351 466.189 67.8837C455.859 63.6545 440.98 58.5168 427.415 57.0018Z" fill="black"/>
<path d="M413.799 77.0138C428.388 63.6204 466.886 81.7849 474.335 88.8497C475.289 101.02 459.443 145.821 455.581 155.51L435.288 135.594C426.64 129.579 399.211 90.4072 413.799 77.0138Z" fill="#8DC0E7"/>
<path d="M590.424 144.407C610.178 132.382 627.697 88.1354 616.635 66.5529C605.979 45.763 566.62 58.0611 545.878 66.5529C525.438 74.9216 531.727 82.1064 534.348 94.2741C536.968 106.442 543.819 152.568 550.219 168.654C558.22 188.761 577.209 173.642 580.054 160.966C582.96 148.017 584.926 147.754 590.424 144.407Z" fill="#B9E1FF"/>
<path fill-rule="evenodd" clip-rule="evenodd" d="M584.878 54.1429C570.914 55.7024 555.743 60.9596 545.331 65.2223C535.03 69.4395 530.816 73.6031 530.039 78.7758C529.667 81.2549 530.124 83.7886 530.772 86.3397C531.026 87.3414 531.304 88.3271 531.586 89.3289C532.052 90.9854 532.531 92.6861 532.938 94.5764C533.634 97.8085 534.626 103.424 535.832 110.254C536.891 116.251 538.115 123.183 539.45 130.261C542.283 145.287 545.618 160.987 548.88 169.184C550.97 174.438 553.88 177.639 557.307 179.048C560.735 180.456 564.381 179.947 567.681 178.406C570.974 176.868 574.032 174.259 576.444 171.239C578.856 168.22 580.692 164.704 581.46 161.28C582.913 154.808 584.082 151.773 585.43 149.935C586.556 148.399 587.826 147.64 589.949 146.372C590.329 146.145 590.736 145.902 591.175 145.635C601.459 139.375 610.928 124.946 616.443 109.548C619.213 101.813 621.019 93.7445 621.423 86.2087C621.827 78.6865 620.839 71.596 617.918 65.898C612.133 54.6124 598.699 52.5994 584.878 54.1429ZM585.199 57.0018C598.907 55.4708 610.48 57.7037 615.352 67.208C617.962 72.3012 618.932 78.835 618.545 86.0549C618.158 93.2611 616.424 101.053 613.728 108.58C608.31 123.707 599.143 137.414 589.674 143.179C589.289 143.413 588.914 143.636 588.547 143.853C586.425 145.112 584.601 146.194 583.104 148.236C581.367 150.604 580.101 154.174 578.647 160.651C577.993 163.566 576.389 166.693 574.19 169.446C571.992 172.197 569.268 174.488 566.459 175.801C563.655 177.11 560.876 177.403 558.405 176.388C555.932 175.372 553.469 172.923 551.559 168.123C548.42 160.234 545.13 144.829 542.283 129.729C540.968 122.759 539.749 115.858 538.689 109.855C537.469 102.95 536.459 97.2342 535.757 93.9719C535.337 92.022 534.805 90.127 534.318 88.3938C534.044 87.4156 533.784 86.4889 533.566 85.633C532.937 83.1533 532.607 81.0863 532.89 79.2021C533.424 75.6483 536.285 72.0351 546.425 67.8837C556.755 63.6545 571.634 58.5168 585.199 57.0018Z" fill="black"/>
<path d="M598.815 77.0138C584.226 63.6204 545.728 81.7849 538.279 88.8497C537.325 101.02 553.171 145.821 557.033 155.51L577.326 135.594C585.974 129.579 613.403 90.4072 598.815 77.0138Z" fill="#8DC0E7"/>
<path d="M574.552 137.316C574.552 170.911 555.843 186.981 508.157 186.981C460.471 186.981 439.252 170.911 439.252 137.316C439.252 103.722 468.457 65.3245 508.157 65.3245C547.857 65.3245 574.552 103.722 574.552 137.316Z" fill="#B9E1FF"/>
<path fill-rule="evenodd" clip-rule="evenodd" d="M574.413 133.074C572.624 163.353 553.477 177.868 508.157 177.868C462.819 177.868 441.406 163.341 439.407 133.037C439.305 134.47 439.252 135.897 439.252 137.316C439.252 170.911 460.471 186.981 508.157 186.981C555.843 186.981 574.552 170.911 574.552 137.316C574.552 135.909 574.505 134.494 574.413 133.074Z" fill="#81B0E0"/>
<path fill-rule="evenodd" clip-rule="evenodd" d="M557.841 172.945C567.734 165.303 572.271 153.682 572.271 137.316C572.271 121.083 565.805 103.599 554.497 90.1897C543.211 76.8071 527.215 67.6027 508.157 67.6027C489.082 67.6027 472.443 76.8236 460.524 90.2345C448.586 103.666 441.534 121.14 441.534 137.316C441.534 153.591 446.639 165.227 457.169 172.907C467.851 180.699 484.489 184.703 508.157 184.703C531.835 184.703 547.807 180.695 557.841 172.945ZM508.157 186.981C555.843 186.981 574.552 170.911 574.552 137.316C574.552 103.722 547.857 65.3245 508.157 65.3245C468.457 65.3245 439.252 103.722 439.252 137.316C439.252 170.911 460.471 186.981 508.157 186.981Z" fill="black"/>
<path fill-rule="evenodd" clip-rule="evenodd" d="M535.343 129.996C538.402 130.319 541.897 133.691 541.299 139.903C541.223 140.693 541.803 141.396 542.596 141.472C543.388 141.548 544.092 140.969 544.168 140.178C544.88 132.79 540.645 127.663 535.646 127.136C533.146 126.872 530.621 127.812 528.765 130.036C526.932 132.232 525.831 135.572 525.831 140.04C525.831 140.835 526.476 141.479 527.272 141.479C528.068 141.479 528.713 140.835 528.713 140.04C528.713 136.009 529.709 133.4 530.98 131.877C532.227 130.382 533.813 129.835 535.343 129.996Z" fill="black"/>
<ellipse cx="4.19298" cy="4.18433" rx="4.19298" ry="4.18433" transform="matrix(-1 0 0 1 551.12 144.486)" fill="#E66FC5"/>
<path fill-rule="evenodd" clip-rule="evenodd" d="M478.582 129.996C475.523 130.319 472.027 133.691 472.626 139.903C472.702 140.693 472.121 141.396 471.329 141.472C470.536 141.548 469.832 140.969 469.756 140.178C469.044 132.79 473.28 127.663 478.279 127.136C480.778 126.872 483.304 127.812 485.16 130.036C486.993 132.232 488.094 135.572 488.094 140.04C488.094 140.835 487.449 141.479 486.653 141.479C485.857 141.479 485.211 140.835 485.211 140.04C485.211 136.009 484.216 133.4 482.945 131.877C481.697 130.382 480.112 129.835 478.582 129.996Z" fill="black"/>
<ellipse cx="466.998" cy="148.67" rx="4.19298" ry="4.18433" fill="#E66FC5"/>
<path fill-rule="evenodd" clip-rule="evenodd" d="M490.687 163.496C489.798 161.519 489.275 159.388 489.273 157.196C489.273 156.191 489.694 155.207 490.428 154.497C491.163 153.785 492.179 153.378 493.218 153.378H520.831C521.869 153.378 522.884 153.785 523.619 154.497C524.354 155.207 524.775 156.191 524.775 157.196C524.766 160.486 523.613 163.63 521.755 166.339C519.888 169.044 517.279 171.352 514.084 172.821C511.956 173.795 509.557 174.381 507.024 174.38C503.216 174.38 499.746 173.065 496.971 171.088C494.186 169.103 492.027 166.458 490.687 163.496Z" fill="black"/>
<mask id="mask4_287_1030" style="mask-type:luminance" maskUnits="userSpaceOnUse" x="489" y="153" width="36" height="22">
<path fill-rule="evenodd" clip-rule="evenodd" d="M490.687 163.496C489.798 161.519 489.275 159.388 489.273 157.196C489.273 156.191 489.694 155.207 490.428 154.497C491.163 153.785 492.179 153.378 493.218 153.378H520.831C521.869 153.378 522.884 153.785 523.619 154.497C524.354 155.207 524.775 156.191 524.775 157.196C524.766 160.486 523.613 163.63 521.755 166.339C519.888 169.044 517.279 171.352 514.084 172.821C511.956 173.795 509.557 174.381 507.024 174.38C503.216 174.38 499.746 173.065 496.971 171.088C494.186 169.103 492.027 166.458 490.687 163.496Z" fill="white"/>
</mask>
<g mask="url(#mask4_287_1030)">
<path fill-rule="evenodd" clip-rule="evenodd" d="M500.798 166.859C500.432 167.544 500.217 168.283 500.217 169.043C500.217 169.391 500.39 169.732 500.691 169.978C500.713 169.996 500.738 170.019 500.767 170.046C501.142 170.392 502.25 171.414 507.513 171.414C512.775 171.414 513.883 170.392 514.257 170.046C514.287 170.019 514.311 169.996 514.333 169.978C514.635 169.732 514.808 169.391 514.808 169.043C514.805 167.902 514.331 166.812 513.567 165.873C512.8 164.935 511.727 164.135 510.414 163.626C509.54 163.289 508.553 163.085 507.513 163.086C505.948 163.086 504.521 163.541 503.38 164.227C502.236 164.915 501.348 165.832 500.798 166.859Z" fill="#E66FC5"/>
</g>
<path d="M565.533 167.238C533.876 181.674 508.928 164.013 500.018 153.901L512.465 124.48C517.314 124.48 522.285 122.257 529.106 134.548C538.541 151.547 549.719 147.924 558.457 144.225C567.105 140.563 570.833 131.967 576.54 125.134C581.781 118.857 595.801 114.804 593.049 134.548C590.443 153.249 572.958 164.013 565.533 167.238Z" fill="#B9E1FF"/>
<path fill-rule="evenodd" clip-rule="evenodd" d="M525.947 129.473C526.296 130.188 525.998 131.048 525.282 131.396C523.768 132.131 521.103 133.747 518.697 135.639C517.497 136.582 516.395 137.568 515.542 138.519C514.668 139.496 514.159 140.324 513.985 140.948C513.772 141.714 512.978 142.162 512.211 141.949C511.444 141.737 510.995 140.944 511.208 140.178C511.558 138.92 512.414 137.695 513.393 136.602C514.394 135.484 515.634 134.384 516.913 133.379C519.464 131.374 522.302 129.643 524.021 128.809C524.737 128.462 525.599 128.759 525.947 129.473Z" fill="black"/>
<path fill-rule="evenodd" clip-rule="evenodd" d="M531.975 137.057C532.323 137.772 532.025 138.633 531.309 138.98C529.782 139.722 527.382 141.145 525.251 142.828C524.188 143.669 523.222 144.551 522.472 145.421C521.71 146.306 521.243 147.095 521.061 147.748C520.848 148.513 520.053 148.961 519.286 148.749C518.519 148.536 518.07 147.743 518.283 146.978C518.626 145.748 519.393 144.582 520.287 143.545C521.194 142.493 522.308 141.485 523.462 140.573C525.765 138.753 528.344 137.221 530.048 136.393C530.764 136.046 531.627 136.343 531.975 137.057Z" fill="black"/>
<path fill-rule="evenodd" clip-rule="evenodd" d="M538.002 143.595C538.35 144.31 538.052 145.171 537.337 145.518C535.794 146.267 534.078 147.287 532.642 148.538C531.196 149.797 530.129 151.206 529.709 152.717C529.496 153.482 528.701 153.93 527.934 153.718C527.167 153.505 526.718 152.712 526.931 151.947C527.559 149.692 529.069 147.831 530.746 146.371C532.433 144.902 534.386 143.751 536.076 142.931C536.791 142.584 537.654 142.881 538.002 143.595Z" fill="black"/>
<path fill-rule="evenodd" clip-rule="evenodd" d="M499.946 152.117C510.372 162.311 533.906 176.401 563.175 163.054C570.6 159.829 588.085 149.065 590.691 130.364C591.06 127.718 591.127 125.499 590.955 123.656C592.235 125.93 592.767 129.58 592.001 135.072C589.395 153.772 571.91 164.536 564.485 167.762C532.828 182.198 507.88 164.536 498.969 154.424L499.946 152.117Z" fill="#81B0E0"/>
<path fill-rule="evenodd" clip-rule="evenodd" d="M593.688 123.288C594.85 125.933 595.182 129.687 594.477 134.747C593.116 144.51 587.877 152.152 582.101 157.73C576.335 163.297 569.962 166.882 566.12 168.552C533.635 183.358 506.996 164.404 497.887 154.066C497.361 153.47 497.42 152.561 498.018 152.036C498.615 151.512 499.526 151.57 500.052 152.167C508.762 162.052 534.11 179.986 564.934 165.93L564.946 165.925L564.958 165.92C568.543 164.362 574.617 160.954 580.096 155.663C585.57 150.377 590.376 143.288 591.622 134.35C592.293 129.537 591.905 126.394 591.048 124.442C590.228 122.576 588.966 121.75 587.542 121.5C586.028 121.234 584.182 121.602 582.337 122.479C580.505 123.349 578.816 124.654 577.647 126.055C576.262 127.713 574.988 129.489 573.701 131.313C573.562 131.511 573.422 131.709 573.282 131.908C572.14 133.53 570.975 135.183 569.735 136.758C566.94 140.305 563.665 143.583 559.02 145.549C554.659 147.395 549.338 149.394 543.83 148.571C538.191 147.729 532.708 144.006 527.846 135.245C524.541 129.291 521.27 126.539 518.44 125.229C515.686 123.953 513.189 123.955 510.992 123.957C510.915 123.957 510.839 123.957 510.762 123.957C509.966 123.957 509.321 123.313 509.321 122.518C509.321 121.724 509.966 121.08 510.762 121.08C510.862 121.08 510.964 121.08 511.067 121.08C513.254 121.076 516.31 121.071 519.654 122.619C523.177 124.251 526.85 127.515 530.367 133.852C534.939 142.089 539.762 145.055 544.256 145.726C548.88 146.416 553.517 144.754 557.894 142.901C561.898 141.206 564.81 138.354 567.468 134.98C568.658 133.47 569.776 131.882 570.924 130.253C571.064 130.055 571.204 129.856 571.344 129.657C572.632 127.832 573.964 125.971 575.432 124.213C576.884 122.475 578.912 120.92 581.098 119.882C583.269 118.85 585.74 118.262 588.042 118.666C590.434 119.087 592.489 120.556 593.688 123.288Z" fill="black"/>
<mask id="mask5_287_1030" style="mask-type:alpha" maskUnits="userSpaceOnUse" x="417" y="35" width="183" height="85">
<path d="M507.807 118C457.89 122.011 426.054 106.635 418.675 96.3898C418.236 95.7797 418.693 94.8612 419.395 94.5926C426.433 91.9013 449.03 76.6875 451.307 73.5C452.965 71.1786 458.175 57.4698 461.807 44.683C463.077 40.2098 467.098 37 471.748 37H540.191C544.203 37 547.826 39.3969 549.395 43.0886L563.807 77C567.175 85.6069 588.602 91.9674 597.628 94.5258C598.372 94.7366 598.589 95.6866 598.024 96.2144C574.879 117.841 562.8 113.581 507.807 118Z" fill="#76B18A" stroke="black" stroke-width="2.5"/>
</mask>
<g mask="url(#mask5_287_1030)">
<rect x="416.807" y="33" width="183" height="88" fill="#977FF8"/>
<path d="M560.307 84.5L533.307 27L547.807 22.5C566.307 43.5 604.307 86.7 608.307 91.5C612.307 96.3 599.974 102.167 593.307 104.5L560.307 84.5Z" fill="black" fill-opacity="0.17"/>
<path d="M561.333 70L569.807 84C569.807 84 529.307 87 507.307 87.5C485.307 88 441.307 84 441.307 84L451.281 70C451.281 70 476.807 73.8861 507.307 73.5C537.807 73.1139 561.333 70 561.333 70Z" fill="black" fill-opacity="0.6"/>
<path d="M507.807 118C457.89 122.011 426.054 106.635 418.675 96.3898C418.236 95.7797 418.693 94.8612 419.395 94.5926C426.433 91.9013 449.03 76.6875 451.307 73.5C452.965 71.1786 458.175 57.4698 461.807 44.683C463.077 40.2098 467.098 37 471.748 37H540.191C544.203 37 547.826 39.3969 549.395 43.0886L563.807 77C567.175 85.6069 588.602 91.9674 597.628 94.5258C598.372 94.7366 598.589 95.6866 598.024 96.2144C574.879 117.841 562.8 113.581 507.807 118Z" stroke="black" stroke-width="2.5"/>
</g>
<path d="M442.501 20.5C430.834 67 300.5 176 361.5 210.5" stroke="black" stroke-width="4" stroke-linecap="round"/>
<path d="M445.847 20.5392L453.439 295.731C453.59 301.219 449.182 305.75 443.692 305.75H442.347C436.843 305.75 432.431 301.198 432.601 295.698L441.141 20.5311C441.18 19.26 442.222 18.25 443.494 18.25C444.769 18.25 445.812 19.2648 445.847 20.5392Z" fill="#FFFDFB" stroke="black" stroke-width="2.5"/>
<path fill-rule="evenodd" clip-rule="evenodd" d="M361.3 189C372.15 189 381.734 192.954 387.41 198.956C407.587 203.4 422.114 223.282 422.114 232C422.114 241.2 405.936 262.847 384.009 265.642C379.909 271.3 373.287 275 365.805 275C364.56 275 363.553 273.986 363.553 272.737V262.768C354.286 259.169 345.941 252.982 340.157 246.742C335.623 256.804 326.616 263.684 316.253 263.684C315.539 263.684 314.863 263.342 314.44 262.765C314.016 262.188 313.89 261.441 314.1 260.756L322.906 232L314.1 203.244C313.89 202.559 314.014 201.814 314.44 201.235C314.866 200.655 315.539 200.316 316.253 200.316C326.614 200.316 335.619 207.191 340.155 217.249C344.984 212.043 351.602 206.874 359.048 203.215V191.263C359.048 190.014 360.055 189 361.3 189ZM355.49 252.76C354.776 252.76 354.179 252.519 353.697 252.038C353.232 251.573 353 250.934 353 250.12V219.54C353 218.76 353.224 218.146 353.672 217.697C354.121 217.232 354.702 217 355.416 217C356.096 217 356.661 217.232 357.109 217.697C357.557 218.146 357.781 218.76 357.781 219.54V221.931H357.881C358.412 220.935 359.084 220.071 359.898 219.341C360.728 218.61 361.674 218.046 362.737 217.647C363.816 217.232 364.986 217.025 366.248 217.025C368.456 217.025 370.382 217.581 372.025 218.693C373.686 219.789 374.972 221.35 375.885 223.375C376.815 225.384 377.28 227.766 377.28 230.522C377.28 233.261 376.823 235.644 375.91 237.669C374.997 239.678 373.719 241.238 372.075 242.351C370.432 243.446 368.522 243.994 366.348 243.994C365.103 243.994 363.94 243.803 362.861 243.421C361.799 243.023 360.861 242.475 360.047 241.778C359.25 241.064 358.595 240.234 358.08 239.288H357.98V250.12C357.98 250.934 357.748 251.573 357.283 252.038C356.818 252.519 356.221 252.76 355.49 252.76ZM365.053 239.736C366.514 239.736 367.775 239.362 368.838 238.615C369.917 237.868 370.747 236.806 371.328 235.428C371.909 234.033 372.2 232.398 372.2 230.522C372.2 228.629 371.909 226.994 371.328 225.616C370.747 224.238 369.917 223.176 368.838 222.429C367.775 221.665 366.514 221.283 365.053 221.283C363.625 221.283 362.38 221.665 361.317 222.429C360.255 223.192 359.425 224.271 358.827 225.666C358.246 227.044 357.956 228.663 357.956 230.522C357.956 232.365 358.246 233.983 358.827 235.378C359.425 236.756 360.255 237.827 361.317 238.59C362.38 239.354 363.625 239.736 365.053 239.736ZM391.823 253.357C389.548 253.341 387.523 252.909 385.747 252.062C383.987 251.232 382.65 250.104 381.737 248.676C381.571 248.377 381.447 248.086 381.364 247.804C381.281 247.539 381.239 247.265 381.239 246.982C381.239 246.385 381.438 245.895 381.837 245.513C382.235 245.131 382.758 244.94 383.406 244.94C384.07 244.94 384.726 245.272 385.373 245.937C386.452 247.082 387.498 247.912 388.511 248.427C389.523 248.958 390.669 249.24 391.947 249.273C394.205 249.29 395.973 248.717 397.251 247.555C398.53 246.393 399.169 244.882 399.169 243.023V238.889H399.044C398.546 239.835 397.882 240.666 397.052 241.379C396.222 242.077 395.268 242.616 394.188 242.998C393.126 243.38 391.98 243.571 390.752 243.571C388.561 243.571 386.643 243.031 385 241.952C383.356 240.873 382.086 239.337 381.189 237.345C380.293 235.353 379.845 233.021 379.845 230.348C379.845 227.608 380.293 225.251 381.189 223.275C382.086 221.283 383.356 219.748 385 218.668C386.66 217.573 388.61 217.025 390.852 217.025C392.097 217.025 393.234 217.224 394.263 217.623C395.309 218.004 396.239 218.552 397.052 219.266C397.866 219.98 398.538 220.827 399.069 221.806H399.169V219.565C399.169 218.768 399.401 218.146 399.866 217.697C400.348 217.232 400.945 217 401.659 217C402.373 217 402.962 217.232 403.427 217.697C403.909 218.146 404.149 218.768 404.149 219.565V242.898C404.149 245.023 403.651 246.875 402.655 248.452C401.659 250.029 400.24 251.241 398.397 252.087C396.554 252.951 394.363 253.374 391.823 253.357ZM391.972 239.412C393.417 239.412 394.678 239.047 395.757 238.316C396.836 237.569 397.675 236.515 398.272 235.154C398.87 233.792 399.169 232.19 399.169 230.348C399.169 228.505 398.87 226.903 398.272 225.542C397.675 224.18 396.836 223.118 395.757 222.354C394.678 221.59 393.417 221.208 391.972 221.208C390.561 221.208 389.324 221.582 388.262 222.329C387.199 223.076 386.377 224.13 385.796 225.492C385.215 226.853 384.925 228.472 384.925 230.348C384.925 232.207 385.215 233.817 385.796 235.179C386.377 236.54 387.199 237.586 388.262 238.316C389.324 239.047 390.561 239.412 391.972 239.412Z" fill="black"/>
<path fill-rule="evenodd" clip-rule="evenodd" d="M334.068 298.607V286.293H332.529C332.003 286.293 331.593 286.158 331.298 285.889C331.015 285.607 330.874 285.228 330.874 284.754C330.874 284.266 331.015 283.888 331.298 283.618C331.593 283.349 332.003 283.214 332.529 283.214H334.068V280.04C334.068 279.424 334.241 278.93 334.588 278.558C334.947 278.186 335.415 278 335.992 278C336.557 278 337.012 278.186 337.358 278.558C337.718 278.93 337.897 279.424 337.897 280.04V283.214H340.36C340.886 283.214 341.29 283.349 341.572 283.618C341.854 283.888 341.995 284.266 341.995 284.754C341.995 285.228 341.854 285.607 341.572 285.889C341.29 286.158 340.886 286.293 340.36 286.293H337.897V297.76C337.897 298.581 338.057 299.191 338.378 299.588C338.712 299.986 339.27 300.217 340.052 300.281L340.36 300.3C340.937 300.351 341.367 300.499 341.649 300.743C341.931 300.974 342.072 301.314 342.072 301.762C342.072 302.147 341.976 302.474 341.784 302.744C341.604 303 341.309 303.199 340.899 303.34C340.488 303.468 339.956 303.533 339.302 303.533H339.09C337.423 303.533 336.165 303.122 335.319 302.301C334.485 301.48 334.068 300.249 334.068 298.607ZM345.305 303.167C345.664 303.539 346.132 303.725 346.709 303.725C347.274 303.725 347.729 303.539 348.076 303.167C348.435 302.795 348.614 302.301 348.614 301.685V291.084C348.614 289.814 348.935 288.743 349.576 287.871C350.231 286.985 351.289 286.543 352.751 286.543C353.162 286.53 353.514 286.485 353.809 286.408C354.104 286.331 354.342 286.209 354.521 286.043C354.906 285.735 355.098 285.286 355.098 284.696C355.098 284.401 355.054 284.144 354.964 283.926C354.887 283.695 354.765 283.509 354.598 283.368C354.419 283.214 354.194 283.092 353.925 283.003C353.668 282.913 353.354 282.868 352.982 282.868C351.981 282.868 351.058 283.214 350.211 283.907C349.365 284.6 348.794 285.498 348.499 286.601H348.422V284.792C348.422 284.202 348.249 283.734 347.902 283.387C347.569 283.028 347.139 282.849 346.613 282.849C346.075 282.849 345.632 283.028 345.286 283.387C344.952 283.734 344.785 284.202 344.785 284.792V301.685C344.785 302.301 344.959 302.795 345.305 303.167ZM364.661 303.725C361.647 303.725 359.299 302.814 357.619 300.993C355.939 299.171 355.098 296.632 355.098 293.373C355.098 291.244 355.477 289.391 356.234 287.813C356.99 286.235 358.068 285.017 359.466 284.157C360.864 283.285 362.5 282.849 364.373 282.849C366.13 282.849 367.682 283.246 369.029 284.042C370.376 284.837 371.428 285.94 372.184 287.351C372.941 288.762 373.32 290.385 373.32 292.219C373.32 292.86 373.146 293.367 372.8 293.739C372.454 294.098 371.966 294.278 371.338 294.278H359.004V294.316V294.335C359.004 296.234 359.498 297.748 360.486 298.876C361.486 299.992 362.84 300.55 364.546 300.55C365.7 300.55 366.675 300.326 367.47 299.877C368.278 299.415 369.074 298.645 369.856 297.568C370.061 297.311 370.267 297.132 370.472 297.029C370.69 296.914 370.94 296.856 371.222 296.856C371.71 296.856 372.101 297.004 372.396 297.299C372.704 297.581 372.858 297.966 372.858 298.453C372.858 298.748 372.768 299.101 372.588 299.511C371.934 300.858 370.914 301.897 369.529 302.628C368.157 303.359 366.534 303.725 364.661 303.725ZM359.024 291.488H369.433C369.407 290.385 369.176 289.423 368.74 288.602C368.304 287.781 367.708 287.146 366.951 286.697C366.207 286.248 365.335 286.023 364.334 286.023C363.346 286.023 362.468 286.254 361.698 286.716C360.928 287.165 360.306 287.8 359.832 288.621C359.37 289.429 359.101 290.385 359.024 291.488ZM378.611 302.955C379.624 303.456 380.791 303.706 382.113 303.706C383.011 303.706 383.87 303.552 384.691 303.244C385.525 302.936 386.275 302.506 386.942 301.955C387.609 301.39 388.141 300.73 388.539 299.973H388.616V300.916V301.859C388.629 302.423 388.802 302.878 389.136 303.225C389.482 303.558 389.918 303.725 390.444 303.725C390.983 303.725 391.419 303.552 391.752 303.206C392.099 302.846 392.272 302.372 392.272 301.782V289.448C392.272 288.101 391.951 286.934 391.31 285.946C390.668 284.959 389.758 284.196 388.578 283.657C387.397 283.118 385.999 282.849 384.383 282.849C382.651 282.849 381.093 283.189 379.708 283.868C378.322 284.535 377.354 285.433 376.802 286.562C376.558 287.024 376.437 287.479 376.437 287.928C376.437 288.416 376.591 288.813 376.898 289.121C377.206 289.416 377.604 289.564 378.091 289.564C378.784 289.564 379.31 289.275 379.669 288.698C380.246 287.749 380.894 287.075 381.612 286.678C382.344 286.267 383.229 286.062 384.268 286.062C385.589 286.062 386.615 286.395 387.346 287.062C388.09 287.717 388.462 288.621 388.462 289.775V291.392L382.825 291.719C380.464 291.847 378.636 292.431 377.341 293.47C376.045 294.496 375.398 295.888 375.398 297.645C375.398 298.851 375.68 299.909 376.244 300.82C376.821 301.73 377.61 302.442 378.611 302.955ZM385.826 299.954C385.018 300.377 384.114 300.589 383.113 300.589C381.959 300.589 381.029 300.313 380.323 299.761C379.631 299.21 379.284 298.485 379.284 297.587C379.284 296.676 379.631 295.952 380.323 295.413C381.029 294.874 382.023 294.56 383.306 294.47L388.462 294.162V295.779C388.462 296.689 388.225 297.51 387.75 298.241C387.276 298.96 386.634 299.531 385.826 299.954ZM396.466 303.167C396.813 303.539 397.274 303.725 397.852 303.725C398.442 303.725 398.91 303.539 399.256 303.167C399.603 302.782 399.776 302.288 399.776 301.685V290.834C399.776 289.5 400.186 288.396 401.007 287.524C401.828 286.639 402.874 286.197 404.143 286.197C405.349 286.197 406.305 286.549 407.01 287.255C407.716 287.948 408.069 288.884 408.069 290.064V301.685C408.069 302.288 408.235 302.782 408.569 303.167C408.915 303.539 409.383 303.725 409.973 303.725C410.551 303.725 411.012 303.539 411.359 303.167C411.705 302.782 411.878 302.288 411.878 301.685V290.68C411.878 289.371 412.276 288.3 413.071 287.467C413.879 286.62 414.912 286.197 416.169 286.197C417.452 286.197 418.439 286.562 419.132 287.293C419.825 288.024 420.171 289.057 420.171 290.391V301.685C420.171 302.288 420.344 302.782 420.691 303.167C421.037 303.539 421.499 303.725 422.076 303.725C422.666 303.725 423.134 303.539 423.48 303.167C423.827 302.782 424 302.288 424 301.685V289.487C424 288.153 423.724 286.992 423.173 286.004C422.634 285.004 421.871 284.234 420.883 283.695C419.908 283.144 418.754 282.868 417.42 282.868C416.47 282.868 415.585 283.022 414.764 283.33C413.943 283.638 413.219 284.087 412.59 284.677C411.974 285.254 411.487 285.953 411.128 286.774H411.051C410.782 285.94 410.377 285.235 409.839 284.657C409.3 284.08 408.652 283.638 407.895 283.33C407.151 283.022 406.318 282.868 405.394 282.868C404.034 282.868 402.854 283.201 401.854 283.868C400.866 284.535 400.141 285.421 399.68 286.524H399.583V284.792C399.583 284.202 399.41 283.734 399.064 283.387C398.73 283.028 398.301 282.849 397.775 282.849C397.236 282.849 396.793 283.028 396.447 283.387C396.114 283.734 395.947 284.202 395.947 284.792V301.685C395.947 302.288 396.12 302.782 396.466 303.167ZM316.925 302.609C318.284 303.353 319.92 303.725 321.831 303.725C323.46 303.725 324.89 303.468 326.122 302.955C327.353 302.442 328.309 301.724 328.989 300.8C329.681 299.877 330.028 298.806 330.028 297.587C330.028 296.086 329.585 294.926 328.7 294.105C327.828 293.284 326.333 292.617 324.217 292.104L321.138 291.372C320.061 291.116 319.259 290.763 318.733 290.314C318.22 289.852 317.964 289.294 317.964 288.64C317.964 287.819 318.323 287.152 319.041 286.639C319.772 286.126 320.709 285.87 321.85 285.87C322.876 285.87 323.717 286.068 324.371 286.466C325.038 286.851 325.596 287.434 326.045 288.217C326.237 288.55 326.468 288.788 326.737 288.929C327.007 289.057 327.308 289.121 327.642 289.121C328.116 289.121 328.482 288.993 328.738 288.736C328.995 288.467 329.123 288.114 329.123 287.678C329.123 287.511 329.098 287.319 329.046 287.101C328.867 286.306 328.443 285.587 327.776 284.946C327.109 284.305 326.276 283.798 325.275 283.426C324.287 283.041 323.204 282.849 322.023 282.849C319.676 282.849 317.784 283.4 316.347 284.503C314.911 285.594 314.192 287.037 314.192 288.833C314.192 290.256 314.673 291.443 315.635 292.392C316.598 293.329 318.053 294.034 320.003 294.509L323.159 295.278C324.249 295.548 325.019 295.888 325.468 296.298C325.929 296.696 326.16 297.234 326.16 297.914C326.16 298.492 325.987 298.998 325.641 299.434C325.294 299.858 324.813 300.178 324.198 300.396C323.595 300.614 322.883 300.723 322.062 300.723C320.831 300.723 319.868 300.531 319.176 300.146C318.483 299.749 317.88 299.133 317.367 298.299C316.905 297.594 316.347 297.241 315.693 297.241C315.206 297.241 314.802 297.376 314.481 297.645C314.16 297.914 314 298.293 314 298.78C314 299.062 314.058 299.345 314.173 299.627C314.661 300.858 315.578 301.852 316.925 302.609Z" fill="black"/>
</g>
<defs>
<clipPath id="clip0_287_1030">
<rect width="308" height="291" fill="white" transform="translate(314 17)"/>
</clipPath>
</defs>
</svg>
