<svg width="280" height="280" viewBox="0 0 280 280" fill="none" xmlns="http://www.w3.org/2000/svg">
<path fill-rule="evenodd" clip-rule="evenodd" d="M123.749 6C149.611 6 172.456 15.4244 185.986 29.7311C234.08 40.3261 268.71 87.7181 268.71 108.498C268.71 130.428 230.145 182.027 177.878 188.69C168.107 202.176 152.322 210.997 134.487 210.997C131.518 210.997 129.118 208.58 129.118 205.602V181.839C107.03 173.261 87.1382 158.512 73.3508 143.639C62.5432 167.624 41.0728 184.023 16.3704 184.023C14.6684 184.023 13.0578 183.209 12.0484 181.833C11.0391 180.458 10.7384 178.677 11.2377 177.043L32.2302 108.498L11.2377 39.9539C10.7384 38.3193 11.0337 36.5445 12.0484 35.1635C13.0631 33.7824 14.6684 32.9732 16.3704 32.9732C41.0675 32.9732 62.5324 49.3622 73.3455 73.336C84.8564 60.9283 100.63 48.6069 118.38 39.8838V11.3946C118.38 8.4168 120.78 6 123.749 6ZM109.899 157.983C108.198 157.983 106.773 157.409 105.626 156.262C104.518 155.154 103.964 153.63 103.964 151.691L103.964 78.7977C103.964 76.9378 104.498 75.4736 105.566 74.4051C106.635 73.2971 108.02 72.7431 109.721 72.7431C111.344 72.7431 112.689 73.2971 113.758 74.4051C114.826 75.4736 115.361 76.9378 115.361 78.7977V84.4962H115.598C116.864 82.1218 118.467 80.064 120.406 78.3228C122.385 76.5816 124.64 75.2362 127.173 74.2864C129.745 73.2971 132.535 72.8024 135.543 72.8024C140.806 72.8024 145.396 74.1281 149.314 76.7795C153.271 79.3913 156.338 83.1112 158.515 87.939C160.731 92.7274 161.839 98.4061 161.839 104.975C161.839 111.505 160.751 117.183 158.574 122.011C156.398 126.8 153.35 130.519 149.433 133.171C145.515 135.783 140.964 137.089 135.78 137.089C132.812 137.089 130.042 136.633 127.47 135.723C124.937 134.773 122.701 133.468 120.762 131.806C118.863 130.104 117.3 128.125 116.073 125.87H115.835L115.835 151.691C115.835 153.63 115.281 155.154 114.173 156.262C113.065 157.409 111.641 157.983 109.899 157.983ZM132.693 126.938C136.176 126.938 139.183 126.048 141.716 124.267C144.288 122.486 146.267 119.953 147.652 116.669C149.037 113.345 149.73 109.447 149.73 104.975C149.73 100.464 149.037 96.5659 147.652 93.2814C146.267 89.9968 144.288 87.4642 141.716 85.6834C139.183 83.863 136.176 82.9529 132.693 82.9529C129.29 82.9529 126.322 83.863 123.79 85.6834C121.257 87.5037 119.278 90.076 117.854 93.4001C116.469 96.6846 115.776 100.543 115.776 104.975C115.776 109.368 116.469 113.226 117.854 116.55C119.278 119.835 121.257 122.387 123.79 124.208C126.322 126.028 129.29 126.938 132.693 126.938ZM196.505 159.408C191.083 159.368 186.255 158.339 182.021 156.321C177.826 154.342 174.641 151.651 172.464 148.248C172.068 147.536 171.772 146.843 171.574 146.17C171.376 145.537 171.277 144.884 171.277 144.212C171.277 142.787 171.752 141.62 172.702 140.709C173.651 139.799 174.898 139.344 176.441 139.344C178.024 139.344 179.587 140.136 181.131 141.719C183.703 144.449 186.196 146.428 188.61 147.654C191.024 148.921 193.754 149.594 196.801 149.673C202.183 149.712 206.398 148.347 209.445 145.577C212.492 142.807 214.016 139.206 214.016 134.773V124.92H213.719C212.532 127.176 210.949 129.154 208.97 130.856C206.991 132.518 204.716 133.804 202.144 134.714C199.611 135.624 196.881 136.079 193.952 136.079C188.729 136.079 184.158 134.793 180.24 132.221C176.322 129.649 173.295 125.988 171.158 121.24C169.021 116.491 167.953 110.931 167.953 104.56C167.953 98.0301 169.021 92.4108 171.158 87.7016C173.295 82.9529 176.322 79.2924 180.24 76.7201C184.197 74.1083 188.847 72.8024 194.19 72.8024C197.158 72.8024 199.868 73.2773 202.322 74.2271C204.815 75.1372 207.031 76.4431 208.97 78.1448C210.909 79.8464 212.512 81.8646 213.778 84.1994H214.016V78.8571C214.016 76.9576 214.57 75.4736 215.678 74.4051C216.825 73.2971 218.25 72.7431 219.951 72.7431C221.653 72.7431 223.058 73.2971 224.166 74.4051C225.314 75.4736 225.887 76.9576 225.887 78.8571V134.477C225.887 139.542 224.7 143.954 222.326 147.714C219.951 151.473 216.568 154.362 212.175 156.38C207.783 158.438 202.559 159.447 196.505 159.408ZM196.861 126.166C200.304 126.166 203.311 125.296 205.883 123.555C208.456 121.774 210.454 119.261 211.879 116.016C213.303 112.771 214.016 108.952 214.016 104.56C214.016 100.167 213.303 96.3483 211.879 93.1033C210.454 89.8583 208.456 87.3257 205.883 85.5053C203.311 83.685 200.304 82.7748 196.861 82.7748C193.497 82.7748 190.549 83.6652 188.016 85.446C185.484 87.2267 183.525 89.7396 182.14 92.9846C180.755 96.2295 180.062 100.088 180.062 104.56C180.062 108.992 180.755 112.83 182.14 116.075C183.525 119.32 185.484 121.813 188.016 123.555C190.549 125.296 193.497 126.166 196.861 126.166Z" fill="black"/>
<path fill-rule="evenodd" clip-rule="evenodd" d="M58.0163 262.275V233.425H54.41C53.1779 233.425 52.2162 233.11 51.5251 232.478C50.8639 231.817 50.5333 230.931 50.5333 229.819C50.5333 228.677 50.8639 227.79 51.5251 227.159C52.2162 226.528 53.1779 226.213 54.41 226.213H58.0163V218.775C58.0163 217.332 58.422 216.175 59.2334 215.304C60.0748 214.432 61.1717 213.997 62.524 213.997C63.8463 213.997 64.9132 214.432 65.7246 215.304C66.566 216.175 66.9868 217.332 66.9868 218.775V226.213H72.7567C73.9888 226.213 74.9355 226.528 75.5966 227.159C76.2578 227.79 76.5883 228.677 76.5883 229.819C76.5883 230.931 76.2578 231.817 75.5966 232.478C74.9355 233.11 73.9888 233.425 72.7567 233.425H66.9868V260.292C66.9868 262.215 67.3624 263.642 68.1137 264.574C68.895 265.506 70.2023 266.046 72.0355 266.197L72.7567 266.242C74.1091 266.362 75.1158 266.708 75.7769 267.279C76.4381 267.82 76.7686 268.616 76.7686 269.668C76.7686 270.569 76.5433 271.336 76.0925 271.967C75.6717 272.568 74.9806 273.034 74.0189 273.364C73.0572 273.665 71.8101 273.815 70.2774 273.815H69.7816C65.8748 273.815 62.9297 272.853 60.9463 270.93C58.9929 269.007 58.0163 266.122 58.0163 262.275ZM84.3417 272.958C85.1832 273.83 86.28 274.266 87.6324 274.266C88.9547 274.266 90.0215 273.83 90.8329 272.958C91.6744 272.087 92.0951 270.93 92.0951 269.487V244.65C92.0951 241.674 92.8464 239.165 94.349 237.122C95.8816 235.048 98.3609 234.011 101.787 234.011C102.748 233.981 103.575 233.876 104.266 233.696C104.957 233.515 105.513 233.23 105.934 232.839C106.836 232.118 107.286 231.066 107.286 229.684C107.286 228.992 107.181 228.391 106.971 227.881C106.79 227.34 106.505 226.904 106.114 226.573C105.694 226.213 105.168 225.927 104.537 225.717C103.936 225.506 103.199 225.401 102.328 225.401C99.9837 225.401 97.82 226.213 95.8365 227.835C93.8531 229.458 92.5158 231.562 91.8246 234.146H91.6443V229.909C91.6443 228.527 91.2386 227.43 90.4272 226.618C89.6459 225.777 88.6391 225.356 87.407 225.356C86.1448 225.356 85.108 225.777 84.2966 226.618C83.5153 227.43 83.1246 228.527 83.1246 229.909V269.487C83.1246 270.93 83.5303 272.087 84.3417 272.958ZM129.69 274.266C122.628 274.266 117.128 272.132 113.191 267.865C109.254 263.597 107.286 257.647 107.286 250.014C107.286 245.025 108.173 240.683 109.946 236.986C111.719 233.29 114.243 230.435 117.519 228.421C120.794 226.378 124.626 225.356 129.014 225.356C133.131 225.356 136.767 226.288 139.922 228.151C143.078 230.014 145.542 232.599 147.315 235.904C149.088 239.21 149.975 243.012 149.975 247.309C149.975 248.812 149.569 249.999 148.758 250.87C147.946 251.712 146.804 252.132 145.332 252.132H116.437V252.223V252.268C116.437 256.715 117.594 260.261 119.908 262.906C122.252 265.521 125.422 266.828 129.419 266.828C132.124 266.828 134.408 266.302 136.271 265.25C138.164 264.168 140.028 262.365 141.861 259.841C142.342 259.24 142.822 258.819 143.303 258.579C143.814 258.308 144.4 258.173 145.061 258.173C146.203 258.173 147.12 258.518 147.811 259.21C148.532 259.871 148.893 260.772 148.893 261.914C148.893 262.606 148.683 263.432 148.262 264.394C146.729 267.549 144.34 269.983 141.094 271.696C137.879 273.409 134.077 274.266 129.69 274.266ZM116.482 245.596H140.869C140.809 243.012 140.268 240.758 139.246 238.834C138.224 236.911 136.827 235.424 135.054 234.372C133.311 233.32 131.267 232.794 128.923 232.794C126.609 232.794 124.551 233.335 122.748 234.417C120.945 235.469 119.487 236.956 118.375 238.88C117.293 240.773 116.662 243.012 116.482 245.596ZM162.372 272.463C164.746 273.635 167.48 274.221 170.576 274.221C172.679 274.221 174.693 273.86 176.616 273.139C178.57 272.417 180.328 271.411 181.89 270.118C183.453 268.796 184.7 267.249 185.632 265.475H185.812V267.684V269.893C185.842 271.215 186.248 272.282 187.029 273.094C187.841 273.875 188.862 274.266 190.095 274.266C191.357 274.266 192.378 273.86 193.16 273.049C193.971 272.207 194.377 271.095 194.377 269.713V240.818C194.377 237.662 193.626 234.928 192.123 232.614C190.62 230.3 188.487 228.512 185.722 227.249C182.957 225.987 179.682 225.356 175.895 225.356C171.838 225.356 168.187 226.153 164.941 227.745C161.695 229.308 159.427 231.412 158.134 234.056C157.563 235.138 157.278 236.205 157.278 237.257C157.278 238.399 157.638 239.33 158.36 240.052C159.081 240.743 160.013 241.088 161.155 241.088C162.777 241.088 164.009 240.412 164.851 239.06C166.203 236.836 167.721 235.258 169.404 234.327C171.117 233.365 173.19 232.884 175.625 232.884C178.72 232.884 181.124 233.666 182.837 235.228C184.58 236.761 185.452 238.88 185.452 241.584V245.371L172.244 246.137C166.714 246.438 162.432 247.805 159.397 250.239C156.361 252.643 154.844 255.904 154.844 260.021C154.844 262.846 155.505 265.325 156.827 267.459C158.179 269.593 160.028 271.26 162.372 272.463ZM179.276 265.43C177.383 266.422 175.264 266.918 172.92 266.918C170.215 266.918 168.036 266.272 166.384 264.98C164.761 263.687 163.949 261.989 163.949 259.886C163.949 257.752 164.761 256.054 166.384 254.792C168.036 253.53 170.365 252.794 173.371 252.583L185.452 251.862V255.648C185.452 257.782 184.896 259.706 183.784 261.418C182.672 263.101 181.169 264.439 179.276 265.43ZM204.203 272.958C205.015 273.83 206.097 274.266 207.449 274.266C208.831 274.266 209.928 273.83 210.74 272.958C211.551 272.057 211.957 270.9 211.957 269.487V244.063C211.957 240.938 212.919 238.354 214.842 236.31C216.765 234.237 219.214 233.2 222.19 233.2C225.014 233.2 227.253 234.026 228.906 235.679C230.559 237.302 231.385 239.496 231.385 242.26V269.487C231.385 270.9 231.776 272.057 232.557 272.958C233.369 273.83 234.466 274.266 235.848 274.266C237.2 274.266 238.282 273.83 239.094 272.958C239.905 272.057 240.311 270.9 240.311 269.487V243.703C240.311 240.638 241.242 238.128 243.106 236.175C244.999 234.191 247.418 233.2 250.363 233.2C253.368 233.2 255.682 234.056 257.305 235.769C258.928 237.482 259.739 239.901 259.739 243.027V269.487C259.739 270.9 260.145 272.057 260.956 272.958C261.768 273.83 262.85 274.266 264.202 274.266C265.584 274.266 266.681 273.83 267.493 272.958C268.304 272.057 268.71 270.9 268.71 269.487V240.908C268.71 237.783 268.064 235.063 266.772 232.749C265.509 230.405 263.721 228.602 261.407 227.34C259.123 226.047 256.419 225.401 253.293 225.401C251.069 225.401 248.996 225.762 247.073 226.483C245.149 227.204 243.451 228.256 241.979 229.639C240.536 230.991 239.394 232.629 238.553 234.552H238.372C237.741 232.599 236.795 230.946 235.533 229.594C234.27 228.241 232.753 227.204 230.98 226.483C229.237 225.762 227.283 225.401 225.12 225.401C221.934 225.401 219.169 226.183 216.825 227.745C214.511 229.308 212.813 231.382 211.731 233.966H211.506V229.909C211.506 228.527 211.1 227.43 210.289 226.618C209.508 225.777 208.501 225.356 207.269 225.356C206.007 225.356 204.97 225.777 204.158 226.618C203.377 227.43 202.986 228.527 202.986 229.909V269.487C202.986 270.9 203.392 272.057 204.203 272.958ZM17.8518 271.651C21.0373 273.394 24.8689 274.266 29.3467 274.266C33.1633 274.266 36.5141 273.665 39.399 272.463C42.284 271.26 44.5229 269.578 46.1156 267.414C47.7384 265.25 48.5498 262.741 48.5498 259.886C48.5498 256.37 47.5131 253.65 45.4395 251.727C43.3959 249.803 39.8949 248.241 34.9363 247.039L27.7239 245.326C25.1995 244.725 23.3213 243.898 22.0891 242.846C20.8871 241.765 20.286 240.457 20.286 238.925C20.286 237.001 21.1275 235.439 22.8104 234.237C24.5234 233.034 26.7171 232.433 29.3918 232.433C31.7959 232.433 33.7643 232.899 35.297 233.831C36.8597 234.732 38.1669 236.1 39.2187 237.933C39.6695 238.714 40.2104 239.27 40.8415 239.601C41.4726 239.901 42.1788 240.052 42.9602 240.052C44.0721 240.052 44.9286 239.751 45.5296 239.15C46.1307 238.519 46.4312 237.692 46.4312 236.671C46.4312 236.28 46.3711 235.829 46.2509 235.318C45.8301 233.455 44.8384 231.772 43.2757 230.27C41.713 228.767 39.7597 227.58 37.4156 226.709C35.1016 225.807 32.5622 225.356 29.7975 225.356C24.298 225.356 19.8653 226.648 16.4995 229.233C13.1337 231.787 11.4508 235.168 11.4508 239.375C11.4508 242.711 12.5777 245.491 14.8316 247.715C17.0855 249.909 20.4964 251.561 25.0643 252.673L32.4571 254.476C35.0115 255.108 36.8146 255.904 37.8664 256.866C38.9483 257.797 39.4892 259.059 39.4892 260.652C39.4892 262.004 39.0835 263.192 38.2721 264.213C37.4607 265.205 36.3337 265.956 34.8913 266.467C33.4788 266.978 31.8109 267.234 29.8876 267.234C27.0026 267.234 24.7487 266.783 23.1259 265.881C21.5031 264.95 20.0907 263.507 18.8886 261.554C17.8068 259.901 16.4995 259.074 14.9668 259.074C13.8249 259.074 12.8782 259.39 12.1269 260.021C11.3756 260.652 11 261.539 11 262.681C11 263.342 11.1352 264.003 11.4057 264.664C12.5477 267.549 14.6964 269.878 17.8518 271.651Z" fill="black"/>
</svg>
