<svg width="270" height="270" viewBox="0 0 270 270" fill="none" xmlns="http://www.w3.org/2000/svg">
<path fill-rule="evenodd" clip-rule="evenodd" d="M118.751 33C144.613 33 167.459 42.4246 180.988 56.7314C229.084 67.3267 263.714 114.719 263.714 135.5C263.714 157.43 225.149 209.03 172.881 215.693C163.11 229.18 147.325 238 129.489 238C126.52 238 124.12 235.583 124.12 232.605V208.841C102.032 200.264 82.1395 185.515 68.3519 170.641C57.544 194.626 36.0733 211.026 11.3705 211.026C9.66851 211.026 8.0578 210.212 7.04843 208.836C6.03905 207.46 5.73839 205.68 6.23771 204.046L27.2306 135.5L6.23771 66.9545C5.73839 65.3199 6.03368 63.545 7.04843 62.1639C8.06317 60.7829 9.66851 59.9737 11.3705 59.9737C36.068 59.9737 57.5333 76.3629 68.3465 100.337C79.8577 87.9292 95.6318 75.6076 113.382 66.8843V38.3947C113.382 35.4168 115.782 33 118.751 33ZM191.508 186.41C186.086 186.371 181.258 185.342 177.024 183.323C172.829 181.345 169.643 178.654 167.467 175.25C167.071 174.538 166.774 173.846 166.576 173.173C166.378 172.54 166.279 171.887 166.279 171.214C166.279 169.789 166.754 168.622 167.704 167.712C168.654 166.801 169.9 166.346 171.444 166.346C173.027 166.346 174.59 167.138 176.133 168.721C178.706 171.451 181.199 173.43 183.613 174.657C186.027 175.923 188.757 176.596 191.804 176.675C197.186 176.715 201.401 175.349 204.448 172.579C207.495 169.809 209.019 166.208 209.019 161.776V151.922H208.722C207.535 154.178 205.952 156.156 203.973 157.858C201.995 159.52 199.719 160.806 197.147 161.716C194.614 162.626 191.883 163.082 188.955 163.082C183.731 163.082 179.161 161.795 175.243 159.223C171.325 156.651 168.298 152.99 166.161 148.242C164.024 143.493 162.955 137.933 162.955 131.561C162.955 125.032 164.024 119.412 166.161 114.703C168.298 109.954 171.325 106.294 175.243 103.721C179.2 101.109 183.85 99.8035 189.192 99.8035C192.16 99.8035 194.871 100.278 197.325 101.228C199.818 102.138 202.034 103.444 203.973 105.146C205.912 106.848 207.515 108.866 208.781 111.201H209.019V105.858C209.019 103.959 209.573 102.475 210.681 101.406C211.829 100.298 213.253 99.7442 214.955 99.7442C216.656 99.7442 218.061 100.298 219.169 101.406C220.317 102.475 220.891 103.959 220.891 105.858V161.479C220.891 166.544 219.704 170.957 217.329 174.716C214.955 178.476 211.571 181.365 207.179 183.383C202.786 185.441 197.562 186.45 191.508 186.41ZM191.864 153.168C195.307 153.168 198.314 152.298 200.886 150.557C203.459 148.776 205.457 146.263 206.882 143.018C208.306 139.773 209.019 135.954 209.019 131.561C209.019 127.169 208.306 123.35 206.882 120.105C205.457 116.86 203.459 114.327 200.886 112.507C198.314 110.686 195.307 109.776 191.864 109.776C188.5 109.776 185.552 110.666 183.019 112.447C180.486 114.228 178.527 116.741 177.142 119.986C175.757 123.231 175.065 127.089 175.065 131.561C175.065 135.994 175.757 139.832 177.142 143.077C178.527 146.322 180.486 148.815 183.019 150.557C185.552 152.298 188.5 153.168 191.864 153.168ZM104.901 184.985C103.199 184.985 101.775 184.412 100.627 183.264C99.5188 182.156 98.9648 180.632 98.9648 178.693V105.799C98.9648 103.939 99.499 102.475 100.568 101.406C101.636 100.298 103.021 99.7442 104.723 99.7442C106.345 99.7442 107.691 100.298 108.759 101.406C109.828 102.475 110.362 103.939 110.362 105.799V111.498H110.599C111.866 109.123 113.468 107.065 115.408 105.324C117.386 103.583 119.642 102.237 122.175 101.288C124.747 100.298 127.537 99.8036 130.544 99.8036C135.808 99.8036 140.398 101.129 144.316 103.781C148.273 106.393 151.34 110.112 153.517 114.94C155.733 119.729 156.841 125.408 156.841 131.977C156.841 138.506 155.753 144.185 153.576 149.013C151.4 153.802 148.353 157.521 144.435 160.173C140.517 162.785 135.966 164.091 130.782 164.091C127.814 164.091 125.044 163.636 122.471 162.725C119.939 161.776 117.703 160.47 115.764 158.808C113.864 157.106 112.301 155.127 111.074 152.872H110.837V178.693C110.837 180.632 110.283 182.156 109.175 183.264C108.067 184.412 106.642 184.985 104.901 184.985ZM127.695 153.94C131.178 153.94 134.185 153.05 136.718 151.269C139.29 149.488 141.269 146.955 142.654 143.671C144.039 140.347 144.732 136.449 144.732 131.977C144.732 127.465 144.039 123.567 142.654 120.283C141.269 116.998 139.29 114.466 136.718 112.685C134.185 110.864 131.178 109.954 127.695 109.954C124.292 109.954 121.324 110.864 118.791 112.685C116.258 114.505 114.28 117.077 112.855 120.402C111.47 123.686 110.777 127.545 110.777 131.977C110.777 136.369 111.47 140.228 112.855 143.552C114.28 146.837 116.258 149.389 118.791 151.21C121.324 153.03 124.292 153.94 127.695 153.94Z" fill="black"/>
</svg>
