<svg width="270" height="270" viewBox="0 0 270 270" fill="none" xmlns="http://www.w3.org/2000/svg">
<path fill-rule="evenodd" clip-rule="evenodd" d="M118.515 32.9741C144.329 32.9741 167.132 42.3812 180.637 56.6615C228.643 67.237 263.209 114.542 263.209 135.284C263.209 157.172 224.715 208.677 172.544 215.327C162.791 228.789 147.035 237.593 129.233 237.593C126.269 237.593 123.874 235.181 123.874 232.208V208.489C101.827 199.927 81.9714 185.205 68.2094 170.36C57.4216 194.3 35.9908 210.67 11.3339 210.67C9.63508 210.67 8.02737 209.856 7.01987 208.483C6.01237 207.11 5.71226 205.333 6.21065 203.702L27.1645 135.284L6.21065 66.8655C5.71226 65.2339 6.00701 63.4623 7.01987 62.0839C8.03273 60.7054 9.63508 59.8977 11.3339 59.8977C35.9855 59.8977 57.4109 76.2564 68.204 100.186C79.6938 87.8012 95.4386 75.5026 113.156 66.7955V38.3588C113.156 35.3865 115.551 32.9741 118.515 32.9741ZM191.136 186.099C185.725 186.06 180.906 185.033 176.679 183.018C172.492 181.043 169.312 178.357 167.14 174.96C166.745 174.249 166.449 173.558 166.251 172.886C166.054 172.254 165.955 171.603 165.955 170.931C165.955 169.509 166.429 168.344 167.377 167.435C168.325 166.527 169.569 166.073 171.11 166.073C172.69 166.073 174.25 166.863 175.79 168.443C178.358 171.168 180.846 173.143 183.256 174.368C185.665 175.632 188.391 176.303 191.432 176.382C196.804 176.422 201.011 175.059 204.053 172.294C207.094 169.529 208.615 165.934 208.615 161.51V151.675H208.319C207.134 153.926 205.554 155.901 203.579 157.6C201.604 159.259 199.332 160.543 196.765 161.451C194.237 162.36 191.511 162.814 188.588 162.814C183.374 162.814 178.812 161.53 174.902 158.963C170.991 156.395 167.969 152.741 165.836 148.001C163.703 143.261 162.637 137.712 162.637 131.352C162.637 124.835 163.703 119.226 165.836 114.525C167.969 109.785 170.991 106.131 174.902 103.564C178.852 100.957 183.493 99.6535 188.825 99.6535C191.788 99.6535 194.494 100.127 196.943 101.075C199.431 101.984 201.643 103.287 203.579 104.986C205.514 106.684 207.114 108.699 208.378 111.029H208.615V105.697C208.615 103.801 209.168 102.32 210.274 101.253C211.419 100.147 212.841 99.5942 214.54 99.5942C216.238 99.5942 217.641 100.147 218.747 101.253C219.892 102.32 220.465 103.801 220.465 105.697V161.214C220.465 166.27 219.28 170.674 216.91 174.427C214.54 178.179 211.163 181.063 206.778 183.077C202.394 185.131 197.18 186.139 191.136 186.099ZM191.492 152.919C194.928 152.919 197.93 152.05 200.498 150.312C203.065 148.535 205.06 146.026 206.482 142.787C207.904 139.548 208.615 135.737 208.615 131.352C208.615 126.968 207.904 123.156 206.482 119.917C205.06 116.678 203.065 114.15 200.498 112.333C197.93 110.516 194.928 109.607 191.492 109.607C188.134 109.607 185.191 110.496 182.663 112.274C180.135 114.051 178.18 116.559 176.798 119.798C175.415 123.037 174.724 126.889 174.724 131.352C174.724 135.776 175.415 139.608 176.798 142.847C178.18 146.086 180.135 148.574 182.663 150.312C185.191 152.05 188.134 152.919 191.492 152.919ZM104.69 184.677C102.992 184.677 101.57 184.104 100.424 182.959C99.3184 181.853 98.7654 180.332 98.7654 178.397V105.638C98.7654 103.781 99.2986 102.32 100.365 101.253C101.432 100.147 102.814 99.5943 104.513 99.5943C106.132 99.5943 107.475 100.147 108.542 101.253C109.608 102.32 110.141 103.781 110.141 105.638V111.326H110.378C111.642 108.956 113.242 106.902 115.178 105.164C117.153 103.426 119.404 102.083 121.932 101.135C124.5 100.147 127.284 99.6535 130.286 99.6535C135.54 99.6535 140.122 100.977 144.032 103.623C147.982 106.23 151.044 109.943 153.216 114.762C155.428 119.542 156.534 125.21 156.534 131.767C156.534 138.284 155.448 143.953 153.275 148.772C151.103 153.551 148.061 157.264 144.151 159.911C140.24 162.518 135.698 163.821 130.523 163.821C127.561 163.821 124.796 163.367 122.228 162.458C119.7 161.51 117.469 160.207 115.533 158.548C113.637 156.849 112.077 154.874 110.852 152.623H110.615V178.397C110.615 180.332 110.062 181.853 108.956 182.959C107.85 184.104 106.428 184.677 104.69 184.677ZM127.442 153.689C130.918 153.689 133.92 152.801 136.448 151.023C139.016 149.246 140.991 146.718 142.373 143.439C143.756 140.121 144.447 136.23 144.447 131.767C144.447 127.264 143.756 123.373 142.373 120.095C140.991 116.816 139.016 114.288 136.448 112.511C133.92 110.694 130.918 109.785 127.442 109.785C124.045 109.785 121.083 110.694 118.555 112.511C116.027 114.328 114.052 116.895 112.63 120.213C111.247 123.492 110.556 127.343 110.556 131.767C110.556 136.151 111.247 140.003 112.63 143.321C114.052 146.599 116.027 149.147 118.555 150.964C121.083 152.781 124.045 153.689 127.442 153.689Z" fill="white"/>
</svg>
